<svg xmlns="http://www.w3.org/2000/svg" xmlns:xlink="http://www.w3.org/1999/xlink" width="800" height="800" viewBox="0 0 24 24"><defs><radialGradient xlink:href="#a" id="b" cx="14.273" cy="11.048" r="9.634" fx="14.273" fy="11.048" gradientTransform="matrix(4.02803 -1.172 .38103 1.30956 -47.057 9.39)" gradientUnits="userSpaceOnUse"/><linearGradient id="a"><stop offset="0" style="stop-color:#f39627;stop-opacity:1"/><stop offset="1" style="stop-color:#fac585;stop-opacity:1"/></linearGradient></defs><g fill="none" fill-rule="evenodd"><path d="M24 0v24H0V0h24ZM12.593 23.258l-.011.002-.071.035-.02.004-.014-.004-.071-.035c-.01-.004-.019-.001-.024.005l-.004.01-.017.428.005.02.01.013.104.074.015.004.012-.004.104-.074.012-.016.004-.017-.017-.427c-.002-.01-.009-.017-.017-.018Zm.265-.113-.013.002-.185.093-.01.01-.003.011.018.43.005.012.008.007.201.093c.012.004.023 0 .029-.008l.004-.014-.034-.614c-.003-.012-.01-.02-.02-.022Zm-.715.002a.023.023 0 0 0-.027.006l-.006.014-.034.614c0 .012.007.02.017.024l.015-.002.201-.093.01-.008.004-.011.017-.43-.003-.012-.01-.01-.184-.092Z"/><path fill="#09244b" d="M18.803 5.158 5.16 18.801c3.225.68 6.704-.34 9.116-2.569l2.339-1.949c-.674-.695-1.395-1.35-2.038-2.073-.434-.613-.13-1.416.422-1.833l4.511-4.512-.707-.707Zm-1.06-1.768c.649-.693 1.808-.507 2.345.224.506.562 1.156 1.016 1.52 1.687.345.758-.125 1.522-.703 1.998l-4.223 4.223c.693.717 1.438 1.39 2.096 2.137.449.65.085 1.493-.536 1.872-1.47 1.185-2.854 2.484-4.417 3.547-3.126 2.008-7.19 2.496-10.687 1.228-.838-.371-.907-1.615-.178-2.133L17.743 3.39Z" style="fill-opacity:1;fill:url(#b);stroke:none"/></g></svg>